#!OML:ASF X:\für Bonn\!DataBase\2005_08_11_Bastian_Final\c3d\Bastian.ASF
:FULLY-SPECIFIED
:DEGREES
79
root -2.3843 16.4534 6.22656 135.569 -25.8283 -167.26
lowerback 52.7459 -7.77454 1.15183
upperback 14.1573 -16.8023 4.00938
thorax -3.27303 -11.8807 10.4199
lowerneck -12.4576 -6.43416 -4.17667
upperneck -7.14023 -6.98852 11.777
head 0.513948 -2.86669 4.32151
rclavicle -1.44516e-013 1.53859e-013
rhumerus -32.4341 40.382 -91.4491
rradius 46.8695
rwrist -25.9393
rhand -32.188 8.43977
rfingers 7.12502
rthumb -5.43026 -21.4707
lclavicle -1.44516e-013 1.53859e-013
lhumerus 51.4524 -23.9292 79.0614
lradius 112.362
lwrist -23.4932
lhand -58.5347 -15.3719
lfingers 7.12502
lthumb -30.7558 12.0758
rfemur -98.9806 -3.89071 39.4762
rtibia 133.211
rfoot 2.53631 -12.343
rtoes -0.651974
lfemur 23.8717 -5.22695 -14.2982
ltibia 39.5467
lfoot -14.4438 -12.9198
ltoes 7.79353
80
root -2.38919 16.4403 6.23502 135.497 -25.8792 -167.289
lowerback 52.8889 -7.73195 1.13777
upperback 14.1895 -16.805 4.05736
thorax -3.23359 -11.9125 10.4798
lowerneck -12.5095 -6.42727 -4.12371
upperneck -7.28246 -6.95367 11.7881
head 0.470901 -2.84395 4.3181
rclavicle -1.09332e-014 -2.50469e-014
rhumerus -32.2168 40.182 -91.177
rradius 47.1339
rwrist -25.4508
rhand -32.0823 8.83399
rfingers 7.12502
rthumb -5.32818 -21.079
lclavicle -1.09332e-014 -2.50469e-014
lhumerus 51.5699 -23.9917 79.0289
lradius 112.602
lwrist -23.7089
lhand -58.5301 -15.6587
lfingers 7.12502
lthumb -30.7514 11.7898
rfemur -98.9347 -3.86304 39.6007
rtibia 133.199
rfoot 2.55106 -12.5556
rtoes -0.598598
lfemur 23.8165 -5.19653 -14.3606
ltibia 39.7814
lfoot -14.5193 -12.9772
ltoes 7.93596
81
root -2.39373 16.4291 6.24389 135.432 -25.942 -167.325
lowerback 53.0261 -7.69629 1.12538
upperback 14.2266 -16.8147 4.08887
thorax -3.19161 -11.9454 10.5228
lowerneck -12.5662 -6.41699 -4.06905
upperneck -7.41592 -6.91385 11.8236
head 0.432325 -2.81772 4.32332
rclavicle -5.20816e-014 -1.16289e-013
rhumerus -32.0088 39.9794 -90.9395
rradius 47.4043
rwrist -25.0101
rhand -31.9616 9.24945
rfingers 7.12502
rthumb -5.21161 -20.6665
lclavicle -5.20816e-014 -1.16289e-013
lhumerus 51.7139 -24.0352 78.9231
lradius 112.85
lwrist -23.8961
lhand -58.5859 -15.8931
lfingers 7.12502
lthumb -30.8046 11.5454
rfemur -98.8885 -3.84124 39.7222
rtibia 133.19
rfoot 2.62432 -12.7713
rtoes -0.748778
lfemur 23.7638 -5.14916 -14.4249
ltibia 39.9825
lfoot -14.5896 -13.0486
ltoes 7.85848
82
root -2.39867 16.4193 6.25265 135.383 -26.0099 -167.361
lowerback 53.1531 -7.66304 1.1017
upperback 14.2577 -16.8339 4.14439
thorax -3.14552 -11.9863 10.5989
lowerneck -12.6928 -6.39619 -4.03124
upperneck -7.50785 -6.86295 11.8047
head 0.416647 -2.78408 4.31099
rclavicle 1.82882e-014 -7.39479e-014
rhumerus -31.7825 39.8624 -90.6574
rradius 47.6856
rwrist -24.5644
rhand -31.8611 9.61717
rfingers 7.12502
rthumb -5.11459 -20.3011
lclavicle 1.82882e-014 -7.39479e-014
lhumerus 51.8882 -24.0261 78.8557
lradius 113.083
lwrist -24.0971
lhand -58.642 -16.0679
lfingers 7.12502
lthumb -30.8581 11.3606
rfemur -98.8626 -3.8377 39.8166
rtibia 133.199
rfoot 2.68346 -12.9614
rtoes -0.805547
lfemur 23.7124 -5.10902 -14.4924
ltibia 40.1441
lfoot -14.6106 -13.1068
ltoes 8.05935
83
root -2.40266 16.4129 6.26246 135.324 -26.0616 -167.388
lowerback 53.3311 -7.6392 1.08574
upperback 14.2549 -16.852 4.20764
thorax -3.14118 -12.022 10.6908
lowerneck -12.7844 -6.37186 -4.0673
upperneck -7.59658 -6.80044 11.8358
head 0.400872 -2.7442 4.33253
rclavicle 4.3832e-014 2.82274e-014
rhumerus -31.5921 39.7509 -90.4002
rradius 47.957
rwrist -24.1043
rhand -31.7735 10.0024
rfingers 7.12502
rthumb -5.03005 -19.9179
lclavicle 4.3832e-014 2.82274e-014
lhumerus 52.0254 -23.9913 78.8012
lradius 113.324
lwrist -24.3859
lhand -58.7551 -16.1282
lfingers 7.12502
lthumb -30.9659 11.2798
rfemur -98.8066 -3.82092 39.9112
rtibia 133.209
rfoot 2.78374 -13.1148
rtoes -1.08377
lfemur 23.672 -5.06476 -14.5465
ltibia 40.2835
lfoot -14.6576 -13.1418
ltoes 7.90411
84
root -2.40656 16.4066 6.27158 135.299 -26.1032 -167.434
lowerback 53.4585 -7.62805 1.0835
upperback 14.267 -16.8749 4.23479
thorax -3.12637 -12.0534 10.7342
lowerneck -12.8854 -6.34597 -4.06364
upperneck -7.69163 -6.73775 11.8578
head 0.382308 -2.70411 4.343
rclavicle 3.27995e-015 -5.24792e-014
rhumerus -31.4077 39.61 -90.185
rradius 48.2167
rwrist -23.637
rhand -31.6823 10.3286
rfingers 7.12502
rthumb -4.94193 -19.5938
lclavicle 3.27995e-015 -5.24792e-014
lhumerus 52.2015 -23.9552 78.705
lradius 113.525
lwrist -24.6935
lhand -58.8878 -16.1086
lfingers 7.12502
lthumb -31.0924 11.2752
rfemur -98.7941 -3.77127 39.9915
rtibia 133.241
rfoot 2.93148 -13.2606
rtoes -1.37379
lfemur 23.619 -5.01292 -14.6084
ltibia 40.4027
lfoot -14.6681 -13.1929
ltoes 8.04789
85
root -2.41062 16.3999 6.28089 135.263 -26.1553 -167.465
lowerback 53.5887 -7.63026 1.09697
upperback 14.2761 -16.9073 4.27361
thorax -3.11209 -12.0908 10.7871
lowerneck -13.0304 -6.32603 -4.10132
upperneck -7.73494 -6.68508 11.88
head 0.391138 -2.66683 4.35955
rclavicle -4.90998e-014 1.18277e-013
rhumerus -31.199 39.4351 -89.9341
rradius 48.4644
rwrist -23.1018
rhand -31.5355 10.6568
rfingers 7.12502
rthumb -4.80024 -19.2688
lclavicle -4.90998e-014 1.18277e-013
lhumerus 52.3644 -23.9159 78.6351
lradius 113.744
lwrist -25.0369
lhand -59.025 -16.1234
lfingers 7.12502
lthumb -31.2232 11.2353
rfemur -98.7738 -3.75567 40.0534
rtibia 133.294
rfoot 3.05424 -13.3722
rtoes -1.59733
lfemur 23.5738 -4.96745 -14.6643
ltibia 40.5171
lfoot -14.695 -13.2294
ltoes 8.01412
86
root -2.41394 16.3938 6.2908 135.228 -26.2052 -167.502
lowerback 53.743 -7.64101 1.10387
upperback 14.2746 -16.9509 4.29938
thorax -3.11257 -12.1307 10.8371
lowerneck -13.1354 -6.30438 -4.14356
upperneck -7.80795 -6.62526 11.9367
head 0.384458 -2.62664 4.39118
rclavicle -3.70733e-014 -2.24627e-014
rhumerus -31.0121 39.3111 -89.733
rradius 48.712
rwrist -22.6049
rhand -31.4496 10.9232
rfingers 7.12502
rthumb -4.71731 -19.0043
lclavicle -3.70733e-014 -2.24627e-014
lhumerus 52.5226 -23.8452 78.5322
lradius 113.935
lwrist -25.3941
lhand -59.2082 -16.0333
lfingers 7.12502
lthumb -31.3977 11.2916
rfemur -98.7487 -3.7429 40.0838
rtibia 133.349
rfoot 3.17132 -13.4308
rtoes -1.86711
lfemur 23.5292 -4.90808 -14.7054
ltibia 40.6325
lfoot -14.7068 -13.2787
ltoes 7.98893
87
root -2.4175 16.3867 6.2995 135.215 -26.2641 -167.553
lowerback 53.8364 -7.65294 1.10548
upperback 14.2913 -16.9958 4.30646
thorax -3.0917 -12.1684 10.8619
lowerneck -13.249 -6.27921 -4.2034
upperneck -7.8453 -6.56342 12.0082
head 0.392379 -2.58467 4.4313
rclavicle -7.36497e-014 1.71551e-013
rhumerus -30.8193 39.1088 -89.5506
rradius 48.9123
rwrist -22.0644
rhand -31.3351 11.2028
rfingers 7.12502
rthumb -4.60674 -18.7271
lclavicle -7.36497e-014 1.71551e-013
lhumerus 52.7024 -23.8012 78.4114
lradius 114.129
lwrist -25.7422
lhand -59.3622 -15.8594
lfingers 7.12502
lthumb -31.5444 11.4368
rfemur -98.779 -3.72362 40.0996
rtibia 133.433
rfoot 3.31107 -13.4921
rtoes -2.0333
lfemur 23.4697 -4.86475 -14.7871
ltibia 40.7555
lfoot -14.7353 -13.3266
ltoes 7.99836
88
root -2.4211 16.38 6.3091 135.204 -26.3059 -167.598
lowerback 53.9424 -7.66863 1.11078
upperback 14.2939 -17.0408 4.32393
thorax -3.08512 -12.2052 10.9
lowerneck -13.4487 -6.25442 -4.22047
upperneck -7.85019 -6.48603 12.3383
head 0.425956 -2.53219 4.12911
rclavicle -2.08724e-015 -2.36554e-014
rhumerus -30.6383 38.915 -89.3619
rradius 49.1118
rwrist -21.4869
rhand -31.2332 11.4374
rfingers 7.12502
rthumb -4.50833 -18.4946
lclavicle -2.08724e-015 -2.36554e-014
lhumerus 52.825 -23.7458 78.3151
lradius 114.319
lwrist -26.112
lhand -59.5316 -15.8105
lfingers 7.12502
lthumb -31.7059 11.454
rfemur -98.7845 -3.69009 40.105
rtibia 133.513
rfoot 3.44525 -13.5491
rtoes -2.21859
lfemur 23.4064 -4.80924 -14.8407
ltibia 40.8871
lfoot -14.7583 -13.3637
ltoes 8.12529
89
root -2.42479 16.3725 6.31719 135.197 -26.3283 -167.623
lowerback 53.9858 -7.68906 1.13774
upperback 14.3291 -17.0857 4.32013
thorax -3.04525 -12.2422 10.8952
lowerneck -13.4973 -6.22958 -4.2564
upperneck -7.92714 -6.42294 12.4429
head 0.41226 -2.49243 4.1708
rclavicle 7.12643e-014 -7.31528e-014
rhumerus -30.4375 38.6802 -89.2148
rradius 49.2809
rwrist -20.9435
rhand -31.1306 11.6395
rfingers 7.12502
rthumb -4.40923 -18.2946
lclavicle 7.12643e-014 -7.31528e-014
lhumerus 52.9677 -23.7157 78.1576
lradius 114.518
lwrist -26.4336
lhand -59.6837 -15.7495
lfingers 7.12502
lthumb -31.8506 11.4863
rfemur -98.8127 -3.64157 40.1436
rtibia 133.609
rfoot 3.59409 -13.5831
rtoes -2.49704
lfemur 23.3329 -4.7521 -14.8681
ltibia 41.0222
lfoot -14.8272 -13.4071
ltoes 7.99467
90
root -2.42808 16.3659 6.32634 135.204 -26.3588 -167.634
lowerback 54.0195 -7.71488 1.14419
upperback 14.343 -17.1379 4.33886
thorax -3.01857 -12.281 10.9285
lowerneck -13.5048 -6.19555 -4.32493
upperneck -8.00818 -6.34846 12.5175
head 0.389709 -2.45023 4.21011
rclavicle 1.86858e-014 -1.05356e-014
rhumerus -30.2685 38.5006 -89.0593
rradius 49.462
rwrist -20.4637
rhand -31.0347 11.7609
rfingers 7.12502
rthumb -4.31666 -18.1751
lclavicle 1.86858e-014 -1.05356e-014
lhumerus 53.0585 -23.6576 78.0486
lradius 114.731
lwrist -26.8033
lhand -59.8465 -15.6207
lfingers 7.12502
lthumb -32.0057 11.5841
rfemur -98.8604 -3.60428 40.1732
rtibia 133.698
rfoot 3.7552 -13.6207
rtoes -2.74898
lfemur 23.2235 -4.68872 -14.8659
ltibia 41.1602
lfoot -14.851 -13.4734
ltoes 8.02447
91
root -2.43145 16.3595 6.33483 135.189 -26.3809 -167.658
lowerback 54.0471 -7.7293 1.14979
upperback 14.384 -17.1883 4.33492
thorax -2.96717 -12.3228 10.9317
lowerneck -13.5155 -6.16523 -4.37088
upperneck -8.07172 -6.2824 12.6252
head 0.374331 -2.41151 4.25505
rclavicle 8.24956e-015 4.17448e-015
rhumerus -30.0219 38.2732 -88.9238
rradius 49.5506
rwrist -19.971
rhand -30.9101 11.7996
rfingers 7.12502
rthumb -4.1963 -18.1389
lclavicle 8.24956e-015 4.17448e-015
lhumerus 53.1447 -23.6372 77.9101
lradius 114.941
lwrist -27.0682
lhand -59.947 -15.7534
lfingers 7.12502
lthumb -32.1014 11.4321
rfemur -98.8738 -3.59387 40.1755
rtibia 133.798
rfoot 3.84234 -13.6209
rtoes -2.82285
lfemur 23.1588 -4.6275 -14.878
ltibia 41.29
lfoot -14.8774 -13.5487
ltoes 8.08944
